Coordinates
version=1
nRows=24
nColumns=22
inDegrees=yes

Units are S.I. units (second, meters, Newtons, ...)
If the header above contains a line with 'inDegrees', this indicates whether rotational values are in degrees (yes) or radians (no).

endheader
time	pelvis_tilt	pelvis_list	pelvis_rotation	pelvis_tx	pelvis_ty	pelvis_tz	hip_flexion_r	hip_adduction_r	hip_rotation_r	knee_angle_r	ankle_angle_r	subtalar_angle_r	hip_flexion_l	hip_adduction_l	hip_rotation_l	knee_angle_l	ankle_angle_l	subtalar_angle_l	lumbar_extension	lumbar_bending	lumbar_rotation
      1.23000000	     -1.13033891	      4.88405375	    182.69984228	     -1.30560764	      1.02223284	     -0.08619149	      9.33341313	      8.75746636	     -9.51238631	    -10.37588348	      0.49264060	     -3.81694876	     16.59510810	     -7.40603636	     -4.12070890	    -48.42798335	     13.72899958	      2.55258895	    -15.56827395	      5.75110960	      7.95872924
      1.24000000	     -1.14123916	      4.88223284	    182.66358785	     -1.30286694	      1.02204028	     -0.08549768	      9.54246557	      8.69601520	     -9.48426864	    -10.47138944	      0.35586605	     -3.78285365	     16.31388468	     -7.33139924	     -3.78010776	    -49.16764737	     13.67644247	      2.57697943	    -15.51812801	      5.78816229	      7.95081906
      1.25000000	     -1.15006606	      4.88668245	    182.62158698	     -1.30007530	      1.02181956	     -0.08476988	      9.75119042	      8.64043281	     -9.45171539	    -10.55587955	      0.21257637	     -3.74942709	     15.99270460	     -7.27177849	     -3.45365574	    -49.81725431	     13.61908901	      2.60102510	    -15.45989227	      5.83279540	      7.93453957
      1.26000000	     -1.15531736	      4.89597449	    182.57151568	     -1.29722786	      1.02156614	     -0.08401052	      9.96056649	      8.58925459	     -9.41199776	    -10.62834689	      0.06379832	     -3.71750905	     15.63283137	     -7.22451602	     -3.14174643	    -50.37012922	     13.55688759	      2.63217829	    -15.39347742	      5.88158991	      7.91184758
      1.27000000	     -1.15463467	      4.91198284	    182.51863711	     -1.29430138	      1.02126965	     -0.08320663	     10.17683183	      8.54297105	     -9.37515083	    -10.69221308	     -0.08768730	     -3.68105713	     15.24301539	     -7.18747551	     -2.83634464	    -50.82518397	     13.49612818	      2.69191306	    -15.31788532	      5.93980941	      7.87728001
      1.28000000	     -1.14996794	      4.93651393	    182.46282500	     -1.29129861	      1.02093183	     -0.08235276	     10.39719154	      8.50187239	     -9.34802475	    -10.74704880	     -0.22984215	     -3.62887462	     14.82107026	     -7.15925970	     -2.53160665	    -51.17608006	     13.43764117	      2.83903372	    -15.23623456	      6.00978276	      7.82953789
      1.29000000	     -1.13151963	      4.94427735	    182.38185196	     -1.28819375	      1.02055499	     -0.08146928	     10.63223253	      8.44436607	     -9.27629599	    -10.79356801	     -0.41000358	     -3.60250760	     14.36686089	     -7.10967612	     -2.24883564	    -51.40404330	     13.37254696	      2.92523870	    -15.14183299	      6.05553081	      7.79354843
      1.30000000	     -1.11065756	      4.95347869	    182.30545249	     -1.28497072	      1.02014134	     -0.08050912	     10.87396121	      8.38235628	     -9.22820067	    -10.83201170	     -0.59666751	     -3.56166510	     13.88612064	     -7.04880657	     -1.94928266	    -51.52153630	     13.31117975	      3.11249015	    -15.04945019	      6.10821704	      7.73179624
      1.31000000	     -1.10531412	      4.97439870	    182.22385670	     -1.28163861	      1.01970256	     -0.07951037	     11.11083891	      8.33073931	     -9.17799038	    -10.88331692	     -0.71892849	     -3.49858892	     13.36229188	     -6.99708389	     -1.65007172	    -51.53257092	     13.24885881	      3.56051210	    -14.97872469	      6.17227575	      7.67253069
      1.32000000	     -1.07191397	      4.97779754	    182.12290149	     -1.27818052	      1.01920364	     -0.07843814	     11.37888717	      8.25689028	     -9.11163884	    -10.92216401	     -0.90128218	     -3.45530724	     12.83034511	     -6.91109138	     -1.35958332	    -51.41144130	     13.19918636	      3.92691886	    -14.88163749	      6.22126079	      7.61044678
      1.33000000	     -1.03687181	      4.97733591	    182.01901643	     -1.27460017	      1.01867306	     -0.07730031	     11.65591830	      8.17496274	     -9.04858130	    -10.96017512	     -1.08049535	     -3.41221249	     12.27156120	     -6.80765890	     -1.06071733	    -51.16477223	     13.14264958	      4.35997154	    -14.78658228	      6.26719690	      7.53738982
      1.34000000	     -0.99764834	      4.96901424	    181.90965230	     -1.27090207	      1.01811042	     -0.07611492	     11.94219002	      8.08279297	     -8.98363245	    -10.99381587	     -1.26752553	     -3.36828250	     11.68878440	     -6.68365788	     -0.75432713	    -50.78794293	     13.07158765	      4.85833162	    -14.68988947	      6.30211769	      7.45333818
      1.35000000	     -0.95590244	      4.95962199	    181.79663101	     -1.26707529	      1.01751809	     -0.07488099	     12.23635258	      7.98773237	     -8.92237490	    -11.02027983	     -1.46263888	     -3.32193688	     11.08355389	     -6.54782448	     -0.44036217	    -50.27934956	     12.99679142	      5.43216590	    -14.59532055	      6.33427081	      7.36525911
      1.36000000	     -0.91056111	      4.94334871	    181.68442372	     -1.26311688	      1.01689841	     -0.07358897	     12.54055279	      7.88224352	     -8.86062644	    -11.04269922	     -1.66401069	     -3.27548750	     10.46037861	     -6.39144379	     -0.10850550	    -49.63855496	     12.88651304	      6.02163492	    -14.50073799	      6.35817121	      7.26469355
      1.37000000	     -0.86405645	      4.93676572	    181.56538929	     -1.25904754	      1.01625134	     -0.07226894	     12.84491137	      7.78730970	     -8.81473731	    -11.04505380	     -1.89690098	     -3.22228351	      9.81404422	     -6.24089271	      0.22737037	    -48.86331167	     12.80123545	      6.67035941	    -14.40441346	      6.38842438	      7.17067234
      1.38000000	     -0.80935182	      4.90664542	    181.45720479	     -1.25481068	      1.01557671	     -0.07087272	     13.17049689	      7.66263701	     -8.75076982	    -11.05407544	     -2.12087301	     -3.17570237	      9.16348300	     -6.04686176	      0.60307762	    -47.95527508	     12.60411006	      7.18521635	    -14.30642762	      6.39316611	      7.03433229
      1.39000000	     -0.76297239	      4.88890805	    181.34750672	     -1.25046147	      1.01489089	     -0.06945244	     13.48177217	      7.55216759	     -8.69839425	    -11.03556755	     -2.38234320	     -3.11870921	      8.48372767	     -5.86563636	      0.98847991	    -46.91147884	     12.44420538	      7.74645401	    -14.21880108	      6.40641903	      6.90262736
      1.40000000	     -0.72350080	      4.88504448	    181.23869229	     -1.24598774	      1.01418516	     -0.06802641	     13.78580042	      7.45759479	     -8.65877261	    -10.99944752	     -2.67277646	     -3.05189814	      7.78200445	     -5.70361037	      1.37853944	    -45.73858702	     12.34608670	      8.28927182	    -14.14135134	      6.42583250	      6.76469176
      1.41000000	     -0.68130689	      4.87877220	    181.14261484	     -1.24136283	      1.01344938	     -0.06655264	     14.09605291	      7.35770227	     -8.61480091	    -10.95284959	     -2.97542186	     -2.98243213	      7.07779827	     -5.53360246	      1.79534534	    -44.44427609	     12.26583607	      8.70560401	    -14.06670255	      6.44000879	      6.59951955
      1.42000000	     -0.61874237	      4.87141682	    181.06230929	     -1.23658501	      1.01265052	     -0.06504393	     14.42988492	      7.25334283	     -8.57624679	    -10.89065205	     -3.30034255	     -2.91403337	      6.39948463	     -5.36137142	      2.23053393	    -43.04674849	     12.24930077	      8.96984397	    -13.97033253	      6.44603342	      6.40787310
      1.43000000	     -0.58218834	      4.88107236	    180.98989576	     -1.23168683	      1.01185511	     -0.06353406	     14.72919215	      7.16805684	     -8.55419475	    -10.79971751	     -3.64968699	     -2.82258196	      5.69440159	     -5.21931881	      2.64348901	    -41.55646864	     12.42982895	      9.18782192	    -13.90862808	      6.46100147	      6.20456838
      1.44000000	     -0.25537132	      4.60602604	    180.77277343	     -1.22608158	      1.01030056	     -0.06178771	     15.34485815	      6.78571942	     -8.66395027	    -10.64003161	     -3.95953108	     -2.91474720	      5.35883411	     -4.72057604	      2.94417273	    -40.07493001	     12.76018468	      9.22542415	    -13.58733148	      6.16580851	      6.04677641
      1.45000000	     -0.29338750	      4.66352855	    180.79049741	     -1.22110826	      1.00952633	     -0.06024231	     15.55371483	      6.74319123	     -8.63204429	    -10.52096810	     -4.31417902	     -2.81262048	      4.62220774	     -4.65779874	      3.31606519	    -38.50318622	     13.33056303	      9.12046812	    -13.58699489	      6.21691520	      5.76064098
      1.46000000	     -0.33791861	      4.72235436	    180.78119659	     -1.21590663	      1.00872676	     -0.05869639	     15.76142651	      6.70571969	     -8.60049491	    -10.38621126	     -4.68136391	     -2.61748071	      3.93050574	     -4.60031661	      3.58196745	    -36.96458641	     14.05576855	      8.78266476	    -13.61877498	      6.25676256	      5.50945892
